{
  "accessors": [
    {
      "bufferView": 2,
      "componentType": 5126,
      "count": 4606,
      "max": [
        78.5784912109375,
        65.53429412841797,
        95.9972915649414
      ],
      "min": [
        -78.68849182128906,
        -2.5223031044006348,
        -96.0413818359375
      ],
      "type": "VEC3"
    },
    {
      "bufferView": 2,
      "byteOffset": 55272,
      "componentType": 5126,
      "count": 4606,
      "max": [
        0.9995156526565552,
        1.0,
        0.998499870300293
      ],
      "min": [
        -0.9992753863334656,
        -0.9998053312301636,
        -0.9999792575836182
      ],
      "type": "VEC3"
    },
    {
      "bufferView": 3,
      "componentType": 5126,
      "count": 4606,
      "max": [
        0.9999894499778748,
        0.9967543482780457,
        0.9999573230743408,
        1.0
      ],
      "min": [
        -0.99998939037323,
        -0.9992726445198059,
        -0.9999365210533142,
        1.0
      ],
      "type": "VEC4"
    },
    {
      "bufferView": 1,
      "componentType": 5126,
      "count": 4606,
      "max": [
        0.9941999912261963,
        0.9871000051498413
      ],
      "min": [
        0.0142000000923872,
        0.00989999994635582
      ],
      "type": "VEC2"
    },
    {
      "bufferView": 0,
      "componentType": 5125,
      "count": 20646,
      "type": "SCALAR"
    }
  ],
  "asset": {
    "extras": {
      "author": "ghostlyfail (https://sketchfab.com/ghostlyfail)",
      "license": "CC-BY-4.0 (http://creativecommons.org/licenses/by/4.0/)",
      "source": "https://sketchfab.com/3d-models/naruto---frog-wallet-70389cbf2bec4b0d813d099633b099f7",
      "title": "Naruto _ Frog Wallet"
    },
    "generator": "Sketchfab-12.65.0",
    "version": "2.0"
  },
  "bufferViews": [
    {
      "buffer": 0,
      "byteLength": 82584,
      "name": "floatBufferViews",
      "target": 34963
    },
    {
      "buffer": 0,
      "byteLength": 36848,
      "byteOffset": 82584,
      "byteStride": 8,
      "name": "floatBufferViews",
      "target": 34962
    },
    {
      "buffer": 0,
      "byteLength": 110544,
      "byteOffset": 119432,
      "byteStride": 12,
      "name": "floatBufferViews",
      "target": 34962
    },
    {
      "buffer": 0,
      "byteLength": 73696,
      "byteOffset": 229976,
      "byteStride": 16,
      "name": "floatBufferViews",
      "target": 34962
    }
  ],
  "buffers": [
    {
      "byteLength": 303672,
      "uri": "scene.bin"
    }
  ],
  "images": [
    {
      "uri": "textures/Material__2_baseColor.jpeg"
    },
    {
      "uri": "textures/Material__2_metallicRoughness.png"
    },
    {
      "uri": "textures/Material__2_normal.png"
    }
  ],
  "materials": [
    {
      "doubleSided": true,
      "name": "Material__2",
      "normalTexture": {
        "index": 2
      },
      "occlusionTexture": {
        "index": 1
      },
      "pbrMetallicRoughness": {
        "baseColorTexture": {
          "index": 0
        },
        "metallicRoughnessTexture": {
          "index": 1
        }
      }
    }
  ],
  "meshes": [
    {
      "name": "defaultMaterial",
      "primitives": [
        {
          "attributes": {
            "NORMAL": 1,
            "POSITION": 0,
            "TANGENT": 2,
            "TEXCOORD_0": 3
          },
          "indices": 4,
          "material": 0,
          "mode": 4
        }
      ]
    }
  ],
  "nodes": [
    {
      "children": [
        1
      ],
      "matrix": [
        1.0,
        0.0,
        0.0,
        0.0,
        0.0,
        2.220446049250313e-16,
        -1.0,
        0.0,
        0.0,
        1.0,
        2.220446049250313e-16,
        0.0,
        0.0,
        0.0,
        0.0,
        1.0
      ],
      "name": "Sketchfab_model"
    },
    {
      "children": [
        2
      ],
      "matrix": [
        1.0,
        0.0,
        0.0,
        0.0,
        0.0,
        -4.371139006309477e-08,
        0.999999999999999,
        0.0,
        0.0,
        -0.999999999999999,
        -4.371139006309477e-08,
        0.0,
        0.0,
        0.0,
        0.0,
        1.0
      ],
      "name": "Collada visual scene group"
    },
    {
      "children": [
        3
      ],
      "name": "Object001"
    },
    {
      "mesh": 0,
      "name": "defaultMaterial"
    }
  ],
  "samplers": [
    {
      "magFilter": 9729,
      "minFilter": 9987,
      "wrapS": 10497,
      "wrapT": 10497
    }
  ],
  "scene": 0,
  "scenes": [
    {
      "name": "Sketchfab_Scene",
      "nodes": [
        0
      ]
    }
  ],
  "textures": [
    {
      "sampler": 0,
      "source": 0
    },
    {
      "sampler": 0,
      "source": 1
    },
    {
      "sampler": 0,
      "source": 2
    }
  ]
}
